<?xml version="1.0" encoding="UTF-8" standalone="no"?> <svg xmlns="http://www.w3.org/2000/svg" viewBox="0 0 64 64"><g id="web_design-browser-user_interface-content-layout" data-name="web design-browser-user interface-content-layout"><path d="M51,19V59a2.006,2.006,0,0,1-2,2H5a2.006,2.006,0,0,1-2-2V19Z" style="fill:#d1e7f8"/><path d="M9,61H49a2.006,2.006,0,0,0,2-2V19A42.123,42.123,0,0,1,9,61Z" style="fill:#c2dff6"/><path d="M49,13H5a2,2,0,0,0-2,2v4H51V15A2,2,0,0,0,49,13Z" style="fill:#004fac"/><rect x="7" y="23" width="40" height="8" style="fill:#ed1c24"/><rect x="23" y="35" width="24" height="22" style="fill:#ffcd00"/><rect x="7" y="35" width="12" height="12" style="fill:#5eac24"/><rect x="7" y="51" width="12" height="6" style="fill:#2488ff"/><path d="M49,12H5a3.009,3.009,0,0,0-3,3V59a3.009,3.009,0,0,0,3,3H49a3.009,3.009,0,0,0,3-3V15A3.009,3.009,0,0,0,49,12Zm1,47a1,1,0,0,1-1,1H5a1,1,0,0,1-1-1V20H50Zm0-41H4V15a1,1,0,0,1,1-1H49a1,1,0,0,1,1,1Z" style="fill:#231f20"/><path d="M7,15H6a1,1,0,0,0,0,2H7a1,1,0,0,0,0-2Z" style="fill:#231f20"/><path d="M11,15H10a1,1,0,0,0,0,2h1a1,1,0,0,0,0-2Z" style="fill:#231f20"/><path d="M15,15H14a1,1,0,0,0,0,2h1a1,1,0,0,0,0-2Z" style="fill:#231f20"/><path d="M47,15H21a1,1,0,0,0,0,2H47a1,1,0,0,0,0-2Z" style="fill:#231f20"/><path d="M60.293,57.293,59,58.586V13.414l1.293,1.293a1,1,0,0,0,1.414-1.414l-3-3a1,1,0,0,0-1.414,0l-3,3a1,1,0,0,0,1.414,1.414L57,13.414V58.586l-1.293-1.293a1,1,0,0,0-1.414,1.414l3,3a1,1,0,0,0,1.414,0l3-3a1,1,0,0,0-1.414-1.414Z" style="fill:#231f20"/><path d="M53.707,5.293l-3-3a1,1,0,0,0-1.414,1.414L50.586,5H5.414L6.707,3.707A1,1,0,0,0,5.293,2.293l-3,3a1,1,0,0,0,0,1.414l3,3A1,1,0,1,0,6.707,8.293L5.414,7H50.586L49.293,8.293a1,1,0,1,0,1.414,1.414l3-3A1,1,0,0,0,53.707,5.293Z" style="fill:#231f20"/><path d="M7,32H47a1,1,0,0,0,1-1V23a1,1,0,0,0-1-1H7a1,1,0,0,0-1,1v8A1,1,0,0,0,7,32Zm1-8H46v6H8Z" style="fill:#231f20"/><path d="M47,34H23a1,1,0,0,0-1,1V57a1,1,0,0,0,1,1H47a1,1,0,0,0,1-1V35A1,1,0,0,0,47,34ZM46,56H24V36H46Z" style="fill:#231f20"/><path d="M7,48H19a1,1,0,0,0,1-1V35a1,1,0,0,0-1-1H7a1,1,0,0,0-1,1V47A1,1,0,0,0,7,48ZM8,36H18V46H8Z" style="fill:#231f20"/><path d="M7,58H19a1,1,0,0,0,1-1V51a1,1,0,0,0-1-1H7a1,1,0,0,0-1,1v6A1,1,0,0,0,7,58Zm1-6H18v4H8Z" style="fill:#231f20"/></g></svg>