<?xml version="1.0" encoding="UTF-8" standalone="no"?> <svg width="48" height="48" viewBox="0 0 48 48" fill="none" xmlns="http://www.w3.org/2000/svg">
<path d="M40.5 4H14.5C13.3065 4 12.1619 4.47411 11.318 5.31802C10.4741 6.16193 10 7.30653 10 8.5V38H4.035C3.79436 38 3.56178 38.0867 3.37994 38.2443C3.19809 38.4019 3.07917 38.6198 3.045 38.858C3.01503 39.0707 2.99999 39.2852 3 39.5C3.00132 40.6931 3.47585 41.8369 4.31948 42.6805C5.16311 43.5241 6.30693 43.9987 7.5 44H33.5C34.0909 44 34.6761 43.8836 35.2221 43.6575C35.768 43.4313 36.2641 43.0998 36.682 42.682C37.0998 42.2641 37.4313 41.768 37.6575 41.2221C37.8836 40.6761 38 40.0909 38 39.5V10H43.965C44.2055 9.99979 44.4378 9.91294 44.6194 9.75536C44.8011 9.59778 44.9199 9.38003 44.954 9.142C44.9849 8.9294 45.0003 8.71483 45 8.5C44.9987 7.30693 44.5241 6.16311 43.6805 5.31948C42.8369 4.47585 41.6931 4.00132 40.5 4ZM5.05 40H29.028C29.1079 40.7161 29.3598 41.4022 29.762 42H7.5C6.92367 42.0001 6.36501 41.8011 5.91855 41.4367C5.47209 41.0722 5.16527 40.5647 5.05 40V40ZM36 8.5V39.5C36.0002 39.8436 35.9296 40.1835 35.7926 40.4985C35.6556 40.8136 35.4552 41.0971 35.2037 41.3312C34.9523 41.5653 34.6553 41.7451 34.3313 41.8594C34.0073 41.9736 33.6632 42.0198 33.3205 41.9952C32.9779 41.9705 32.6439 41.8755 32.3396 41.716C32.0353 41.5565 31.7671 41.3361 31.5518 41.0683C31.3365 40.8006 31.1787 40.4914 31.0882 40.16C30.9978 39.8285 30.9766 39.482 31.026 39.142C31.0464 39.0001 31.036 38.8555 30.9956 38.718C30.9551 38.5805 30.8856 38.4533 30.7917 38.345C30.6978 38.2367 30.5818 38.1498 30.4514 38.0903C30.321 38.0308 30.1793 38 30.036 38H12V8.5C12 7.83696 12.2634 7.20107 12.7322 6.73223C13.2011 6.26339 13.837 6 14.5 6H36.76C36.2635 6.73912 35.9989 7.6096 36 8.5V8.5ZM38.05 8C38.1648 7.43486 38.4714 6.92676 38.9179 6.56181C39.3644 6.19686 39.9233 5.99749 40.5 5.99749C41.0767 5.99749 41.6356 6.19686 42.0821 6.56181C42.5286 6.92676 42.8352 7.43486 42.95 8H38.05Z" fill="black"/>
<path d="M20.667 21.1C21.021 21.307 21.4236 21.416 21.8335 21.416C22.2435 21.416 22.6461 21.307 23 21.1L28.333 18.021C28.688 17.8163 28.9827 17.5218 29.1877 17.167C29.3926 16.8122 29.5005 16.4097 29.5005 16C29.5005 15.5903 29.3926 15.1878 29.1877 14.833C28.9827 14.4782 28.688 14.1837 28.333 13.979L23 10.9C22.6453 10.6954 22.2429 10.5878 21.8334 10.5879C21.4239 10.588 21.0216 10.6959 20.6669 10.9007C20.3123 11.1054 20.0177 11.3999 19.8129 11.7546C19.6081 12.1092 19.5002 12.5115 19.5 12.921V19.079C19.4975 19.4892 19.6043 19.8926 19.8094 20.2478C20.0145 20.603 20.3106 20.8972 20.667 21.1ZM21.5 12.921C21.4987 12.8622 21.5136 12.8041 21.543 12.7531C21.5725 12.7021 21.6154 12.6602 21.667 12.632C21.7177 12.6023 21.7753 12.5865 21.834 12.586C21.8925 12.5864 21.9498 12.6023 22 12.632L27.333 15.711C27.3837 15.7404 27.4258 15.7825 27.455 15.8332C27.4842 15.884 27.4996 15.9415 27.4996 16C27.4996 16.0586 27.4842 16.1161 27.455 16.1668C27.4258 16.2175 27.3837 16.2597 27.333 16.289L22 19.368C21.9493 19.3971 21.8918 19.4123 21.8334 19.4122C21.7749 19.4121 21.7175 19.3966 21.6669 19.3674C21.6163 19.3381 21.5742 19.2961 21.545 19.2455C21.5157 19.1949 21.5002 19.1375 21.5 19.079V12.921Z" fill="black"/>
<path d="M17 26H31C31.2652 26 31.5196 25.8946 31.7071 25.7071C31.8946 25.5196 32 25.2652 32 25C32 24.7348 31.8946 24.4804 31.7071 24.2929C31.5196 24.1054 31.2652 24 31 24H17C16.7348 24 16.4804 24.1054 16.2929 24.2929C16.1054 24.4804 16 24.7348 16 25C16 25.2652 16.1054 25.5196 16.2929 25.7071C16.4804 25.8946 16.7348 26 17 26Z" fill="black"/>
<path d="M17 30H31C31.2652 30 31.5196 29.8946 31.7071 29.7071C31.8946 29.5196 32 29.2652 32 29C32 28.7348 31.8946 28.4804 31.7071 28.2929C31.5196 28.1054 31.2652 28 31 28H17C16.7348 28 16.4804 28.1054 16.2929 28.2929C16.1054 28.4804 16 28.7348 16 29C16 29.2652 16.1054 29.5196 16.2929 29.7071C16.4804 29.8946 16.7348 30 17 30Z" fill="black"/>
<path d="M17 34H31C31.2652 34 31.5196 33.8946 31.7071 33.7071C31.8946 33.5196 32 33.2652 32 33C32 32.7348 31.8946 32.4804 31.7071 32.2929C31.5196 32.1054 31.2652 32 31 32H17C16.7348 32 16.4804 32.1054 16.2929 32.2929C16.1054 32.4804 16 32.7348 16 33C16 33.2652 16.1054 33.5196 16.2929 33.7071C16.4804 33.8946 16.7348 34 17 34Z" fill="black"/>
</svg>
