<?xml version="1.0" encoding="iso-8859-1"?>
<!-- Generator: Adobe Illustrator 22.1.0, SVG Export Plug-In . SVG Version: 6.00 Build 0)  -->
<svg version="1.1" id="Layer_1_1_" xmlns="http://www.w3.org/2000/svg" xmlns:xlink="http://www.w3.org/1999/xlink" x="0px" y="0px"
	 viewBox="0 0 64 64" style="enable-background:new 0 0 64 64;" xml:space="preserve">
<path style="fill:#FFED80;" d="M46.5,18h-1c-0.828,0-1.5,0.672-1.5,1.5S43.328,21,42.5,21h-1c-0.828,0-1.5-0.672-1.5-1.5V17h-1
	c-1.105,0-2-0.895-2-2c0-1.105,0.895-2,2-2h1V9h5.208c-3.197-4.682-8.8-7.59-15.037-6.898C26.361,2.524,22.939,4.336,20.409,7H28v4
	h1c1.105,0,2,0.895,2,2c0,1.105-0.895,2-2,2h-1v2.5c0,0.828-0.672,1.5-1.5,1.5h-1c-0.828,0-1.5-0.672-1.5-1.5S23.328,16,22.5,16h-1
	c-0.828,0-1.5,0.672-1.5,1.5S19.328,19,18.5,19h-1c-0.789,0-1.428-0.611-1.488-1.384c-0.111,4.745,1.842,9.027,5.029,12.021
	C23.514,31.96,25,35.143,25,38.537V39h14V38.54c0-3.42,1.529-6.601,4.011-8.953c2.819-2.672,4.646-6.36,4.931-10.479
	C47.769,18.471,47.192,18,46.5,18z"/>
<path style="fill:#F2E079;" d="M46.5,18h-0.706c-2.947,9.513-11.015,16.769-20.98,18.564C24.926,37.211,25,37.868,25,38.537V39h14
	V38.54c0-3.42,1.529-6.601,4.011-8.953c2.819-2.672,4.646-6.36,4.931-10.479C47.769,18.471,47.192,18,46.5,18z"/>
<path style="fill:#FFED80;" d="M8.488,39h1c0.828,0,1.5,0.672,1.5,1.5s0.672,1.5,1.5,1.5h1c0.828,0,1.5-0.672,1.5-1.5V38h1
	c1.105,0,2-0.895,2-2c0-1.105-0.895-2-2-2h-1v-4H7.398c-2.343,2.468-3.923,5.665-4.31,9.195C3.035,39.673,3.011,40.146,3,40.616
	C3.06,41.389,3.7,42,4.488,42h1c0.828,0,1.5-0.672,1.5-1.5S7.66,39,8.488,39z"/>
<path style="fill:#FFED80;" d="M51,36h-1c-1.105,0-2,0.895-2,2c0,1.105,0.895,2,2,2h1v2.5c0,0.828,0.672,1.5,1.5,1.5h1
	c0.828,0,1.5-0.672,1.5-1.5s0.672-1.5,1.5-1.5h1c0.692,0,1.269,0.471,1.442,1.109C58.967,41.741,59,41.375,59,41
	c0-3.342-1.04-6.434-2.792-9H51V36z"/>
<path style="fill:#6D6D6D;" d="M27,45L27,45c0,2.209,1.791,4,4,4h2c2.209,0,4-1.791,4-4v0H27z"/>
<circle style="fill:#99E1FF;" cx="11" cy="52" r="3"/>
<path style="fill:#99E1FF;" d="M15,63v-4h1c2.209,0,4-1.791,4-4v-8h-3v7c0,0.55-0.45,1-1,1H6c-0.55,0-1-0.45-1-1v-7H2v8
	c0,2.209,1.791,4,4,4h1v4"/>
<circle style="fill:#26547C;" cx="53" cy="52" r="3"/>
<path style="fill:#26547C;" d="M57,63v-4h1c2.209,0,4-1.791,4-4v-8h-3v7c0,0.55-0.45,1-1,1H48c-0.55,0-1-0.45-1-1v-7h-3v8
	c0,2.209,1.791,4,4,4h1v4"/>
<path style="fill:#3D3D3D;" d="M48.4,22.486l-1.93-0.527c0.167-0.61,0.296-1.235,0.384-1.857l1.98,0.277
	C48.735,21.086,48.59,21.795,48.4,22.486z"/>
<path style="fill:#3D3D3D;" d="M6,60v3h2v-4c0-0.553-0.447-1-1-1H6c-1.654,0-3-1.346-3-3v-7h1v6c0,1.103,0.897,2,2,2h10
	c1.103,0,2-0.897,2-2v-6h1v7c0,1.654-1.346,3-3,3h-1c-0.553,0-1,0.447-1,1v4h2v-3c2.757,0,5-2.243,5-5v-8c0-0.553-0.447-1-1-1h-3
	c-0.553,0-1,0.447-1,1v7h-1.556C14.788,53.409,15,52.732,15,52c0-2.206-1.794-4-4-4s-4,1.794-4,4c0,0.732,0.212,1.409,0.556,2H6v-7
	c0-0.553-0.447-1-1-1H2c-0.553,0-1,0.447-1,1v8C1,57.757,3.243,60,6,60z M9,52c0-1.103,0.897-2,2-2s2,0.897,2,2s-0.897,2-2,2
	S9,53.103,9,52z"/>
<path style="fill:#3D3D3D;" d="M62,46h-3c-0.553,0-1,0.447-1,1v7h-1.556C56.788,53.409,57,52.732,57,52c0-2.206-1.794-4-4-4
	s-4,1.794-4,4c0,0.732,0.212,1.409,0.556,2H48v-7c0-0.553-0.447-1-1-1h-3c-0.553,0-1,0.447-1,1v8c0,2.757,2.243,5,5,5v3h2v-4
	c0-0.553-0.447-1-1-1h-1c-1.654,0-3-1.346-3-3v-7h1v6c0,1.103,0.897,2,2,2h10c1.103,0,2-0.897,2-2v-6h1v7c0,1.654-1.346,3-3,3h-1
	c-0.553,0-1,0.447-1,1v4h2v-3c2.757,0,5-2.243,5-5v-8C63,46.447,62.553,46,62,46z M51,52c0-1.103,0.897-2,2-2s2,0.897,2,2
	s-0.897,2-2,2S51,53.103,51,52z"/>
<path style="fill:#3D3D3D;" d="M27,44c-0.553,0-1,0.447-1,1c0,2.757,2.243,5,5,5h2c2.757,0,5-2.243,5-5c0-0.553-0.447-1-1-1H27z
	 M33,48h-2c-1.304,0-2.416-0.836-2.829-2h7.658C35.416,47.164,34.304,48,33,48z"/>
<rect x="26" y="41" style="fill:#3D3D3D;" width="12" height="2"/>
<path style="fill:#3D3D3D;" d="M4.488,43h1c1.379,0,2.5-1.121,2.5-2.5c0-0.275,0.225-0.5,0.5-0.5h1c0.275,0,0.5,0.225,0.5,0.5
	c0,1.379,1.121,2.5,2.5,2.5h1c1.379,0,2.5-1.121,2.5-2.5V39c1.654,0,3-1.346,3-3s-1.346-3-3-3v-3c0-0.553-0.447-1-1-1H7.397
	c-0.274,0-0.536,0.112-0.726,0.312c-2.557,2.693-4.183,6.165-4.578,9.774C2.038,39.594,2.012,40.095,2,40.594
	c-0.001,0.033,0,0.067,0.003,0.101C2.104,41.987,3.196,43,4.488,43z M4.082,39.305C4.415,36.264,5.743,33.331,7.835,31h6.153v3
	c0,0.553,0.447,1,1,1h1c0.552,0,1,0.448,1,1s-0.448,1-1,1h-1c-0.553,0-1,0.447-1,1v2.5c0,0.275-0.225,0.5-0.5,0.5h-1
	c-0.275,0-0.5-0.225-0.5-0.5c0-1.379-1.121-2.5-2.5-2.5h-1c-1.379,0-2.5,1.121-2.5,2.5c0,0.275-0.225,0.5-0.5,0.5h-1
	c-0.247,0-0.45-0.18-0.487-0.424C4.012,40.155,4.035,39.732,4.082,39.305z"/>
<path style="fill:#3D3D3D;" d="M52.5,45h1c1.379,0,2.5-1.121,2.5-2.5c0-0.275,0.225-0.5,0.5-0.5h1c0.222,0,0.418,0.152,0.478,0.371
	c0.128,0.472,0.581,0.776,1.062,0.733c0.486-0.048,0.866-0.439,0.9-0.927l0.013-0.189C59.978,41.661,60,41.334,60,41
	c0-3.414-1.025-6.722-2.966-9.563C56.848,31.163,56.538,31,56.208,31H51c-0.553,0-1,0.447-1,1v3c-1.654,0-3,1.346-3,3s1.346,3,3,3
	v1.5C50,43.879,51.121,45,52.5,45z M49,38c0-0.552,0.448-1,1-1h1c0.553,0,1-0.447,1-1v-3h3.669c1.354,2.137,2.141,4.547,2.301,7.045
	C57.816,40.016,57.66,40,57.5,40h-1c-1.379,0-2.5,1.121-2.5,2.5c0,0.275-0.225,0.5-0.5,0.5h-1c-0.275,0-0.5-0.225-0.5-0.5V40
	c0-0.553-0.447-1-1-1h-1C49.448,39,49,38.552,49,38z"/>
<path style="fill:#3D3D3D;" d="M40,39v-0.46c0-3.045,1.313-5.967,3.7-8.227c3.085-2.925,4.946-6.88,5.24-11.137
	c0.007-0.11-0.004-0.223-0.033-0.33C48.613,17.76,47.623,17,46.5,17h-1c-1.379,0-2.5,1.121-2.5,2.5c0,0.275-0.225,0.5-0.5,0.5h-1
	c-0.275,0-0.5-0.225-0.5-0.5V17c0-0.553-0.447-1-1-1h-1c-0.552,0-1-0.448-1-1s0.448-1,1-1h1c0.553,0,1-0.447,1-1v-3h4.208
	c0.371,0,0.711-0.205,0.884-0.533c0.174-0.328,0.151-0.725-0.058-1.03c-3.563-5.219-9.686-8.026-15.974-7.329
	c-3.916,0.434-7.602,2.282-10.376,5.204c-0.275,0.29-0.352,0.716-0.194,1.083C19.648,7.762,20.01,8,20.409,8H27v3
	c0,0.553,0.447,1,1,1h1c0.552,0,1,0.448,1,1s-0.448,1-1,1h-1c-0.553,0-1,0.447-1,1v2.5c0,0.275-0.225,0.5-0.5,0.5h-1
	c-0.275,0-0.5-0.225-0.5-0.5c0-1.379-1.121-2.5-2.5-2.5h-1c-1.379,0-2.5,1.121-2.5,2.5c0,0.275-0.225,0.5-0.5,0.5h-1
	c-0.26,0-0.471-0.198-0.491-0.462c-0.042-0.53-0.482-0.933-1.024-0.922c-0.532,0.015-0.96,0.444-0.973,0.977
	c-0.113,4.82,1.835,9.477,5.345,12.772C22.672,32.541,24,35.52,24,38.537V39c0,0.553,0.447,1,1,1h14C39.553,40,40,39.553,40,39z
	 M33,38v-3c0-0.297-0.132-0.578-0.359-0.769l-5.362-4.469C27.102,29.616,27,29.399,27,29.17v-1.398C27,27.346,27.346,27,27.771,27
	h1.28c0.259,0,0.499,0.129,0.643,0.344c0.516,0.772,1.377,1.234,2.306,1.234s1.79-0.462,2.306-1.234
	C34.449,27.129,34.689,27,34.948,27h1.28C36.654,27,37,27.346,37,27.771v1.343c0,0.241-0.115,0.472-0.309,0.617L33.4,32.2l1.199,1.6
	l3.292-2.469C38.586,30.81,39,29.981,39,29.114v-1.343C39,26.243,37.757,25,36.229,25h-1.28c-0.929,0-1.791,0.461-2.307,1.234
	c-0.207,0.31-0.518,0.344-0.642,0.344s-0.435-0.034-0.642-0.344C30.843,25.461,29.98,25,29.052,25h-1.28
	C26.243,25,25,26.243,25,27.771v1.398c0,0.825,0.363,1.602,0.997,2.13L31,35.469V38h-5.012c-0.147-3.381-1.683-6.668-4.263-9.092
	c-2.524-2.372-4.133-5.54-4.586-8.935C17.257,19.991,17.378,20,17.5,20h1c1.379,0,2.5-1.121,2.5-2.5c0-0.275,0.225-0.5,0.5-0.5h1
	c0.275,0,0.5,0.225,0.5,0.5c0,1.379,1.121,2.5,2.5,2.5h1c1.379,0,2.5-1.121,2.5-2.5V16c1.654,0,3-1.346,3-3s-1.346-3-3-3V7
	c0-0.553-0.447-1-1-1h-4.973c2.127-1.603,4.633-2.614,7.254-2.904C35.175,2.553,39.939,4.408,43.156,8H40c-0.553,0-1,0.447-1,1v3
	c-1.654,0-3,1.346-3,3s1.346,3,3,3v1.5c0,1.379,1.121,2.5,2.5,2.5h1c1.379,0,2.5-1.121,2.5-2.5c0-0.275,0.225-0.5,0.5-0.5h1
	c0.179,0,0.342,0.1,0.429,0.252c-0.306,3.674-1.936,7.079-4.604,9.61c-2.648,2.509-4.167,5.735-4.312,9.138H33z"/>
<rect x="10" y="25" style="fill:#3D3D3D;" width="2" height="2"/>
<rect x="10" y="20" style="fill:#3D3D3D;" width="2" height="2"/>
<rect x="10" y="15" style="fill:#3D3D3D;" width="2" height="2"/>
<rect x="10" y="10" style="fill:#3D3D3D;" width="2" height="2"/>
<rect x="53" y="27" style="fill:#3D3D3D;" width="2" height="2"/>
<rect x="53" y="22" style="fill:#3D3D3D;" width="2" height="2"/>
<rect x="53" y="17" style="fill:#3D3D3D;" width="2" height="2"/>
<rect x="53" y="12" style="fill:#3D3D3D;" width="2" height="2"/>
<rect x="15" y="10" style="fill:#3D3D3D;" width="2" height="2"/>
<rect x="48" y="12" style="fill:#3D3D3D;" width="2" height="2"/>
</svg>
