<svg xmlns="http://www.w3.org/2000/svg" shape-rendering="geometricPrecision" text-rendering="geometricPrecision" image-rendering="optimizeQuality" fill-rule="evenodd" clip-rule="evenodd" viewBox="0 0 512 512"><path fill-rule="nonzero" d="M289.61 30.59c49.47 7.32 93.77 30.53 127.52 64.28 33.76 33.75 56.97 78.05 64.29 127.52h-31.37c-7.03-40.91-26.69-77.51-54.81-105.63-28.12-28.12-64.72-47.77-105.63-54.81V30.59zm-99.14 140.53c30.89-38.17 66.49-58.93 93.23-24.98 30.71 1.62 43.89 48.25 22.75 71.25 1.52-.02 2.94.29 4.18.96 1.61.88 2.83 2.31 3.45 4.35.62 1.99.62 4.58-.25 7.79l-.14.41c-.36 1.08-.69 2.5-1.03 3.96-1.41 6.14-2.97 12.89-9.97 12.52l-1.11-.12c-.26 12.69-6.46 18.54-14.58 26.16 2.18 3.18 4.36 6.38 6.97 9.34l.01-.02c13.72 12.36 49.09 14.83 64.21 23.27 4.78 2.66 9.1 6.05 12.57 10.64 8.69 11.48 10.1 20.5 11.84 34.35.23.94.36 1.9.36 2.87 0 1.91-1.55 3.46-3.45 3.46H132.49c-1.9 0-3.45-1.55-3.45-3.46 0-.98.14-1.96.37-2.91 1.75-13.82 3.15-22.85 11.83-34.31 3.48-4.59 7.8-7.98 12.57-10.64 14.64-8.17 47.94-10.75 62.83-22.12.93-1.58 1.89-3.58 2.82-5.7 1.2-2.75 2.34-5.69 3.27-8.23-5.9-5.47-10.44-11.39-11.46-22.66l-.71.02c-1.64-.02-3.22-.4-4.69-1.24-3.25-1.85-5.03-5.39-5.9-9.43-1.09-5.12-.72-11.2-.2-15.04l.21-.75c1.14-3.19 2.57-4.91 4.37-5.64-.82-15.24 1.76-39.37-13.88-44.1zm92.66 105.97c-8.03 7.48-16.78 11.11-25.66 11.12-9.29 0-18.61-3.98-27.27-11.69l-3.05-2.67-.2-.16c-.8 2.14-1.71 4.42-2.67 6.61-1.3 2.96-2.69 5.74-4.04 7.77 14.58 29.56 57.68 30.59 71.65.17-3.51-3.56-6.17-7.36-8.76-11.15zm-3.58-102.36c-7.03 7.09-14.48 9.13-21.78 9.77-2.16.39-4.27.65-6.37.91-7 .86-14 1.73-23.27 8.14-4.41 3.05-7.34 6.74-8.83 11.03-1.52 4.35-1.61 9.45-.34 15.24.12.55.09 1.15-.12 1.72a3.061 3.061 0 0 1-3.93 1.82l-3.57-1.31c-2.88-1-4.68-1.32-5.54.73-.44 3.35-.72 8.43.17 12.61.53 2.46 1.44 4.52 2.93 5.37.53.3 1.12.44 1.73.44.78.01 1.66-.16 2.6-.44l.82-.13a3.059 3.059 0 0 1 3.13 2.98c.33 13.86 6.49 19.17 13.97 25.62l3.13 2.72c7.52 6.69 15.45 10.14 23.19 10.14 7.54 0 15.09-3.3 22.13-10.09l3.17-3.01c7.85-7.38 13.64-12.81 12.53-26.05-.06-.67.1-1.35.5-1.94.93-1.41 2.83-1.8 4.24-.87.56.37 1.11.66 1.65.85.45.17.9.27 1.31.29 1.87.1 2.83-4.03 3.69-7.77.37-1.61.73-3.16 1.21-4.59.56-2.05.62-3.49.33-4.42-.11-.38-.31-.64-.54-.77-.36-.19-.91-.25-1.56-.2-1.52.14-3.33.92-5.03 2.17-.67.59-1.59.88-2.54.72a3.076 3.076 0 0 1-2.5-3.54c2.89-16.84 1.57-27.82-2.02-35.31-3.14-6.55-8.16-10.53-13.6-13.5l-.89.67zm-8.62-80.58h-29.86V0h29.86v94.15zm146.92 176.78v-29.86H512v29.86h-94.15zM0 270.93v-29.86h94.15v29.86H0zM270.93 512h-29.86v-94.15h29.86V512zm210.49-222.39c-7.32 49.47-30.53 93.77-64.29 127.52-33.75 33.76-78.05 56.97-127.52 64.29v-31.37c40.91-7.03 77.51-26.69 105.63-54.81 28.12-28.12 47.78-64.72 54.81-105.63h31.37zM222.39 481.42c-49.47-7.32-93.77-30.53-127.52-64.29-33.75-33.75-56.96-78.05-64.28-127.52h31.36c7.04 40.91 26.69 77.51 54.81 105.63 28.12 28.12 64.72 47.78 105.63 54.81v31.37zM30.59 222.39c7.32-49.47 30.53-93.77 64.28-127.52s78.05-56.96 127.52-64.28v31.36c-40.91 7.04-77.51 26.69-105.63 54.81-28.12 28.12-47.77 64.72-54.81 105.63H30.59z"/></svg>