<?xml version="1.0" standalone="no"?>
<!DOCTYPE svg PUBLIC "-//W3C//DTD SVG 20010904//EN"
 "http://www.w3.org/TR/2001/REC-SVG-20010904/DTD/svg10.dtd">
<svg version="1.0" xmlns="http://www.w3.org/2000/svg"
 width="512.000000pt" height="512.000000pt" viewBox="0 0 512.000000 512.000000"
 preserveAspectRatio="xMidYMid meet">

<g transform="translate(0.000000,512.000000) scale(0.100000,-0.100000)"
fill="#000000" stroke="none">
<path d="M4309 5049 c-87 -9 -162 -41 -284 -119 -237 -150 -307 -178 -417
-166 -80 9 -139 31 -318 119 -257 126 -423 171 -568 156 -91 -10 -163 -40
-287 -119 -237 -150 -307 -178 -417 -166 -92 11 -148 33 -373 149 -109 56
-276 113 -367 125 -87 11 -192 -1 -265 -30 -32 -13 -103 -53 -158 -88 -173
-110 -228 -139 -294 -156 -114 -29 -207 -8 -407 93 -111 56 -114 57 -129 38
-8 -11 -15 -26 -15 -33 0 -20 254 -139 350 -163 156 -40 255 -14 477 127 212
134 225 139 368 139 109 -1 129 -4 213 -33 52 -18 171 -70 265 -117 340 -169
439 -166 734 21 212 134 225 139 368 139 109 -1 129 -4 215 -33 52 -18 174
-71 271 -118 348 -167 441 -164 736 22 212 134 225 139 368 139 108 -1 129 -4
212 -32 50 -18 150 -62 222 -98 124 -62 261 -115 295 -115 11 0 16 10 16 33 0
31 -3 34 -47 45 -59 16 -172 66 -232 102 -97 59 -315 132 -426 142 -22 2 -70
1 -106 -3z"/>
<path d="M4309 4839 c-87 -9 -162 -41 -284 -119 -237 -150 -307 -178 -417
-166 -80 9 -139 31 -318 119 -257 126 -423 171 -568 156 -91 -10 -163 -40
-287 -119 -237 -150 -307 -178 -417 -166 -92 11 -148 33 -373 149 -109 56
-276 113 -367 125 -87 11 -192 -1 -265 -30 -32 -13 -103 -53 -158 -88 -173
-110 -228 -139 -294 -156 -114 -29 -207 -8 -407 93 -111 56 -114 57 -129 38
-8 -11 -15 -26 -15 -33 0 -20 254 -139 350 -163 156 -40 255 -14 477 127 212
134 225 139 368 139 109 -1 129 -4 213 -33 52 -18 171 -70 265 -117 340 -169
439 -166 734 21 212 134 225 139 368 139 109 -1 129 -4 215 -33 52 -18 174
-71 271 -118 348 -167 441 -164 736 22 212 134 225 139 368 139 108 -1 129 -4
212 -32 50 -18 150 -62 222 -98 124 -62 261 -115 295 -115 11 0 16 10 16 33 0
31 -3 34 -47 45 -59 16 -172 66 -232 102 -97 59 -315 132 -426 142 -22 2 -70
1 -106 -3z"/>
<path d="M2595 4352 c-65 -22 -109 -54 -146 -105 -51 -70 -59 -118 -59 -354
l0 -213 -90 0 -90 0 0 195 0 195 -50 0 -50 0 0 -195 0 -195 -52 0 c-87 0 -83
16 -86 -290 l-3 -270 -34 0 c-54 0 -65 -19 -65 -114 l0 -83 -122 -6 c-164 -9
-316 -36 -595 -106 l-233 -59 0 272 c0 242 -2 275 -19 311 -23 49 -64 89 -112
109 -26 11 -38 23 -42 43 -10 48 -69 126 -121 158 l-49 30 -207 3 -207 3 -74
-62 c-41 -34 -77 -67 -81 -73 -18 -27 -3 -49 76 -115 l83 -71 75 0 75 0 5
-142 c3 -79 3 -317 0 -530 l-5 -388 -45 0 c-36 0 -67 -12 -151 -56 -58 -31
-109 -62 -113 -68 -4 -6 -8 -237 -8 -513 0 -559 -3 -533 69 -533 56 0 185 36
244 67 66 36 175 143 211 208 15 27 34 72 43 100 9 27 17 52 19 53 1 2 186
-106 411 -241 224 -135 455 -268 513 -297 241 -121 489 -199 780 -246 226 -36
1812 -36 1970 0 371 84 669 347 794 697 101 281 83 577 -49 844 -64 129 -127
215 -227 311 -171 162 -394 267 -623 291 l-70 8 -3 85 c-2 46 -8 90 -14 97 -7
8 -35 13 -79 13 l-69 0 0 30 c0 29 -1 30 -50 30 -49 0 -50 -1 -50 -30 l0 -30
-64 0 c-40 0 -68 -5 -74 -13 -6 -7 -12 -51 -14 -97 l-3 -85 -45 0 -45 0 -3 85
c-2 46 -8 90 -14 97 -7 8 -35 13 -79 13 l-69 0 0 30 c0 29 -1 30 -50 30 -49 0
-50 -1 -50 -30 l0 -30 -64 0 c-40 0 -68 -5 -74 -13 -6 -7 -12 -51 -14 -97 l-3
-85 -72 -3 -73 -3 0 78 c0 99 -14 123 -71 123 l-39 0 0 229 0 229 123 4 c86 2
129 7 140 17 14 11 17 35 17 142 0 117 -2 129 -19 139 -32 17 -280 13 -333 -6
-67 -22 -122 -74 -149 -139 l-23 -55 -83 0 -83 0 0 170 0 170 129 0 c104 0
133 3 145 16 13 13 16 42 16 159 0 117 -3 146 -16 159 -21 21 -105 20 -169 -2z
m85 -157 l0 -75 -90 0 c-96 0 -100 3 -76 48 19 37 54 68 96 86 66 29 70 25 70
-59z m400 -460 l0 -55 -155 0 c-143 0 -155 1 -155 18 0 19 39 61 75 80 11 6
68 12 128 12 l107 0 0 -55z m-2545 -156 c43 -12 115 -76 115 -103 0 -14 -24
-16 -227 -16 l-228 1 -35 30 -35 30 39 35 39 34 146 0 c80 0 164 -5 186 -11z
m2188 5 l77 -7 0 -228 0 -229 -365 0 -365 0 0 228 c0 126 3 232 7 235 8 9 546
9 646 1z m-1937 -258 l34 -34 0 -284 0 -285 -187 -48 c-104 -26 -194 -50 -200
-52 -10 -4 -13 73 -13 366 l0 371 166 0 166 0 34 -34z m2124 -351 l0 -45 -470
0 -470 0 0 45 0 45 470 0 470 0 0 -45z m560 0 l0 -45 -110 0 -110 0 0 45 0 45
110 0 110 0 0 -45z m510 0 l0 -45 -110 0 -110 0 0 45 0 45 110 0 110 0 0 -45z
m285 -172 c294 -79 523 -261 654 -520 17 -34 31 -67 31 -73 0 -6 -85 -10 -247
-10 l-248 0 -17 30 c-10 18 -36 39 -60 50 -39 18 -67 20 -317 20 l-274 0 -93
-50 -93 -50 -380 0 c-356 0 -381 1 -381 18 0 27 -56 116 -91 146 -63 53 -108
70 -189 70 -81 0 -126 -17 -189 -70 -35 -30 -91 -119 -91 -146 0 -16 -13 -18
-130 -18 -117 0 -130 2 -130 18 0 27 -56 116 -91 146 -63 53 -108 70 -189 70
-81 0 -126 -17 -189 -70 -35 -30 -91 -119 -91 -146 0 -17 -20 -18 -277 -18
l-278 0 -17 30 c-33 58 -80 70 -286 70 l-183 0 3 113 3 112 180 46 c828 213
892 227 1135 252 19 2 577 3 1240 3 1199 -2 1205 -2 1285 -23z m-2417 -495
c118 -79 105 -266 -23 -328 -61 -30 -137 -25 -193 13 -116 76 -105 263 20 326
59 30 140 25 196 -11z m820 0 c118 -79 105 -266 -23 -328 -61 -30 -137 -25
-193 13 -116 76 -105 263 20 326 59 30 140 25 196 -11z m-1860 -120 c15 -15
15 -61 0 -76 -9 -9 -86 -12 -285 -12 -260 0 -274 1 -318 22 -25 12 -45 25 -45
28 0 3 19 16 43 27 40 21 57 22 318 22 201 1 278 -2 287 -11z m3546 -4 c9 -8
16 -24 16 -34 0 -10 -7 -26 -16 -34 -13 -14 -53 -16 -286 -16 -259 0 -272 1
-309 22 -22 12 -39 24 -39 28 0 3 17 16 38 28 35 21 48 22 309 22 234 0 274
-2 287 -16z m-4069 -184 l45 0 0 -139 0 -140 81 -48 81 -48 -5 -41 c-11 -102
-113 -241 -218 -299 -43 -23 -135 -54 -161 -55 -5 0 -8 189 -8 420 l0 420 70
-35 c49 -25 83 -35 115 -35z"/>
</g>
</svg>
