<?xml version="1.0" encoding="UTF-8"?>
<!DOCTYPE svg PUBLIC "-//W3C//DTD SVG 1.1//EN" "http://www.w3.org/Graphics/SVG/1.1/DTD/svg11.dtd">
<svg xmlns="http://www.w3.org/2000/svg" version="1.1" width="512px" height="512px" style="shape-rendering:geometricPrecision; text-rendering:geometricPrecision; image-rendering:optimizeQuality; fill-rule:evenodd; clip-rule:evenodd" xmlns:xlink="http://www.w3.org/1999/xlink">
<g><path style="opacity:0.961" fill="#000000" d="M 511.5,31.5 C 511.5,33.8333 511.5,36.1667 511.5,38.5C 506.69,37.9641 502.023,36.7975 497.5,35C 483.519,27.8425 469.186,21.5091 454.5,16C 442.344,12.3432 430.344,12.6765 418.5,17C 407.334,23.4154 396.334,30.0821 385.5,37C 371.669,43.9233 357.669,44.2566 343.5,38C 327.968,29.9001 311.968,22.9001 295.5,17C 283.344,13.3432 271.344,13.6765 259.5,18C 248.334,24.4154 237.334,31.0821 226.5,38C 212.669,44.9233 198.669,45.2566 184.5,39C 174.888,34.8606 165.554,30.1939 156.5,25C 147.493,20.9976 138.159,17.9976 128.5,16C 116.727,13.9281 105.727,15.9281 95.5,22C 83.7029,30.5654 71.0362,37.5654 57.5,43C 46.8697,45.3668 36.5364,44.3668 26.5,40C 17.142,36.3257 8.4753,31.659 0.5,26C 1.29542,24.2054 2.46209,22.7054 4,21.5C 14.3815,27.2959 25.2148,32.1293 36.5,36C 47.8111,38.6054 58.4778,36.9387 68.5,31C 78.3323,23.9139 88.6656,17.5806 99.5,12C 106.294,9.45585 113.294,7.95585 120.5,7.5C 130.796,8.74074 140.796,11.2407 150.5,15C 162.289,20.3944 173.956,26.0611 185.5,32C 197.056,37.3606 208.723,37.6939 220.5,33C 232.668,25.4148 245.001,18.0815 257.5,11C 264.294,8.45585 271.294,6.95585 278.5,6.5C 288.796,7.74074 298.796,10.2407 308.5,14C 320.773,19.1368 332.773,24.8035 344.5,31C 356.056,36.3606 367.723,36.6939 379.5,32C 391.668,24.4148 404.001,17.0815 416.5,10C 423.294,7.45585 430.294,5.95585 437.5,5.5C 447.796,6.74074 457.796,9.24074 467.5,13C 477.956,17.7276 488.289,22.7276 498.5,28C 502.716,29.6842 507.049,30.8509 511.5,31.5 Z"/></g>
<g><path style="opacity:0.951" fill="#000000" d="M 511.5,52.5 C 511.5,54.8333 511.5,57.1667 511.5,59.5C 506.69,58.9641 502.023,57.7975 497.5,56C 483.519,48.8425 469.186,42.5091 454.5,37C 442.344,33.3432 430.344,33.6765 418.5,38C 407.334,44.4154 396.334,51.0821 385.5,58C 371.669,64.9233 357.669,65.2566 343.5,59C 327.968,50.9001 311.968,43.9001 295.5,38C 283.344,34.3432 271.344,34.6765 259.5,39C 248.334,45.4154 237.334,52.0821 226.5,59C 212.669,65.9233 198.669,66.2566 184.5,60C 168.918,52.1228 153.084,44.9561 137,38.5C 135.413,39.727 134.079,39.3937 133,37.5C 132.439,38.0219 131.772,38.3552 131,38.5C 129.667,37.8333 128.333,37.1667 127,36.5C 121.918,37.1902 116.752,37.1902 111.5,36.5C 106.477,38.4763 101.144,40.643 95.5,43C 82.8564,52.1033 69.6897,59.6033 56,65.5C 50.0175,66.8295 44.0175,66.8295 38,65.5C 36.968,63.8555 35.8013,63.5221 34.5,64.5C 32.2046,63.5682 29.8713,62.7348 27.5,62C 19.404,57.6182 11.0707,53.7848 2.5,50.5C -0.292636,47.3449 0.207364,44.6783 4,42.5C 14.3815,48.2959 25.2148,53.1293 36.5,57C 47.8111,59.6054 58.4778,57.9387 68.5,52C 78.3323,44.9139 88.6656,38.5806 99.5,33C 106.294,30.4559 113.294,28.9559 120.5,28.5C 130.796,29.7407 140.796,32.2407 150.5,36C 162.289,41.3944 173.956,47.0611 185.5,53C 197.056,58.3606 208.723,58.6939 220.5,54C 232.668,46.4148 245.001,39.0815 257.5,32C 264.294,29.4559 271.294,27.9559 278.5,27.5C 288.796,28.7407 298.796,31.2407 308.5,35C 320.773,40.1368 332.773,45.8035 344.5,52C 356.056,57.3606 367.723,57.6939 379.5,53C 391.668,45.4148 404.001,38.0815 416.5,31C 423.294,28.4559 430.294,26.9559 437.5,26.5C 447.796,27.7407 457.796,30.2407 467.5,34C 477.956,38.7276 488.289,43.7276 498.5,49C 502.716,50.6842 507.049,51.8509 511.5,52.5 Z"/></g>
<g><path style="opacity:0.055" fill="#000000" d="M 2.5,50.5 C 2.63101,51.2389 2.46434,51.9056 2,52.5C 1.30831,51.5632 1.47498,50.8966 2.5,50.5 Z"/></g>
<g><path style="opacity:0.004" fill="#000000" d="M 92.5,52.5 C 93.8333,53.1667 93.8333,53.1667 92.5,52.5 Z"/></g>
<g><path style="opacity:0.024" fill="#000000" d="M 90.5,53.5 C 91.8333,54.1667 91.8333,54.1667 90.5,53.5 Z"/></g>
<g><path style="opacity:0.985" fill="#0d0d0d" d="M 511.5,312.5 C 511.5,322.5 511.5,332.5 511.5,342.5C 501.346,394.82 470.013,425.987 417.5,436C 359.173,437.353 300.839,437.353 242.5,436C 207.526,433.007 174.526,423.341 143.5,407C 115.334,390.418 87.3342,373.585 59.5,356.5C 52.4806,378.35 37.814,392.184 15.5,398C 9.88554,399.054 4.5522,398.554 -0.5,396.5C -0.5,362.167 -0.5,327.833 -0.5,293.5C 8.95083,286.102 19.6175,282.102 31.5,281.5C 31.9554,246.155 31.9554,210.822 31.5,175.5C 25.8236,175.666 20.1569,175.499 14.5,175C 9.62677,170.622 4.62677,166.455 -0.5,162.5C -0.5,160.167 -0.5,157.833 -0.5,155.5C 4.98435,151.583 10.3177,147.417 15.5,143C 28.1667,142.333 40.8333,142.333 53.5,143C 65.6017,145.935 73.2683,153.435 76.5,165.5C 83.4677,167.968 88.301,172.635 91,179.5C 91.4999,198.164 91.6666,216.83 91.5,235.5C 108.741,231.023 126.074,226.857 143.5,223C 157.715,220.343 172.048,218.843 186.5,218.5C 186.334,212.491 186.501,206.491 187,200.5C 189.951,198.924 193.117,198.257 196.5,198.5C 196.333,180.83 196.5,163.164 197,145.5C 197.5,144.333 198.333,143.5 199.5,143C 203.152,142.501 206.818,142.335 210.5,142.5C 210.5,129.833 210.5,117.167 210.5,104.5C 213.833,104.5 217.167,104.5 220.5,104.5C 220.5,117.167 220.5,129.833 220.5,142.5C 226.5,142.5 232.5,142.5 238.5,142.5C 238.333,127.163 238.5,111.83 239,96.5C 245.509,79.1556 258.009,71.9889 276.5,75C 277.191,76.0674 277.691,77.2341 278,78.5C 278.667,87.5 278.667,96.5 278,105.5C 277.691,106.766 277.191,107.933 276.5,109C 267.173,109.5 257.839,109.666 248.5,109.5C 248.5,120.5 248.5,131.5 248.5,142.5C 254.167,142.5 259.833,142.5 265.5,142.5C 266.968,133.526 271.968,127.36 280.5,124C 292.429,122.396 304.429,122.063 316.5,123C 317.126,123.75 317.626,124.584 318,125.5C 318.667,133.833 318.667,142.167 318,150.5C 317.167,151.333 316.333,152.167 315.5,153C 307.173,153.5 298.84,153.666 290.5,153.5C 290.5,168.5 290.5,183.5 290.5,198.5C 294.192,197.971 297.358,198.971 300,201.5C 300.499,207.157 300.666,212.824 300.5,218.5C 305.167,218.5 309.833,218.5 314.5,218.5C 314.09,212.379 314.59,206.379 316,200.5C 320.631,198.728 325.464,198.062 330.5,198.5C 330.5,196.833 330.5,195.167 330.5,193.5C 333.833,193.5 337.167,193.5 340.5,193.5C 340.5,195.167 340.5,196.833 340.5,198.5C 345.866,198.042 351.033,198.709 356,200.5C 357.41,206.379 357.91,212.379 357.5,218.5C 360.167,218.5 362.833,218.5 365.5,218.5C 365.09,212.379 365.59,206.379 367,200.5C 371.631,198.728 376.464,198.062 381.5,198.5C 381.5,196.833 381.5,195.167 381.5,193.5C 384.833,193.5 388.167,193.5 391.5,193.5C 391.5,195.167 391.5,196.833 391.5,198.5C 396.866,198.042 402.033,198.709 407,200.5C 408.41,206.379 408.91,212.379 408.5,218.5C 465.178,225.517 499.511,256.851 511.5,312.5 Z M 170.5,277.5 C 183.408,277.41 190.741,283.743 192.5,296.5C 191.167,307.833 184.833,314.167 173.5,315.5C 158.928,312.684 153.094,304.017 156,289.5C 159.081,283.231 163.914,279.231 170.5,277.5 Z M 252.5,277.5 C 265.408,277.41 272.741,283.743 274.5,296.5C 273.167,307.833 266.833,314.167 255.5,315.5C 240.928,312.684 235.094,304.017 238,289.5C 241.081,283.231 245.914,279.231 252.5,277.5 Z M 380.5,291.5 C 397.503,291.333 414.503,291.5 431.5,292C 435.295,293.064 436.461,295.564 435,299.5C 433.933,300.191 432.766,300.691 431.5,301C 414.5,301.667 397.5,301.667 380.5,301C 377.671,299.753 375.005,298.253 372.5,296.5C 375.231,294.808 377.898,293.142 380.5,291.5 Z"/></g>
<g><path style="opacity:1" fill="#db8d1c" d="M 264.5,83.5 C 265.822,83.33 266.989,83.6634 268,84.5C 268.667,89.5 268.667,94.5 268,99.5C 261.916,100.642 255.749,100.809 249.5,100C 248.978,99.4387 248.645,98.772 248.5,98C 251.529,90.4638 256.863,85.6304 264.5,83.5 Z"/></g>
<g><path style="opacity:1" fill="#dd8e1c" d="M 286.5,131.5 C 293.508,131.334 300.508,131.5 307.5,132C 308.626,135.744 308.793,139.577 308,143.5C 297.545,144.703 287.045,144.536 276.5,143C 275.465,141.493 275.632,139.993 277,138.5C 279.825,135.524 282.992,133.191 286.5,131.5 Z"/></g>
<g><path style="opacity:1" fill="#e4931d" d="M 18.5,152.5 C 30.1714,152.333 41.8381,152.5 53.5,153C 59.2751,154.941 63.2751,158.774 65.5,164.5C 65.2907,165.086 64.9574,165.586 64.5,166C 49.5,166.667 34.5,166.667 19.5,166C 16.4875,164.321 14.1541,161.987 12.5,159C 14.6366,157.027 16.6366,154.861 18.5,152.5 Z"/></g>
<g><path style="opacity:1" fill="#eb971e" d="M 206.5,152.5 C 230.836,152.333 255.169,152.5 279.5,153C 280.657,168.426 280.824,183.926 280,199.5C 255.906,200.661 231.739,200.827 207.5,200C 207,199.5 206.5,199 206,198.5C 205.184,183.092 205.351,167.759 206.5,152.5 Z"/></g>
<g><path style="opacity:1" fill="#e9961d" d="M 41.5,174.5 C 52.1719,174.333 62.8385,174.5 73.5,175C 77.6667,176.5 80.5,179.333 82,183.5C 82.8255,202.407 82.6588,221.24 81.5,240C 69.7906,242.844 58.1239,245.844 46.5,249C 44.5594,249.743 42.7261,249.576 41,248.5C 40.1772,223.761 40.3439,199.094 41.5,174.5 Z"/></g>
<g><path style="opacity:1" fill="#de8f1c" d="M 196.5,208.5 C 227.835,208.333 259.168,208.5 290.5,209C 291.833,212.333 291.833,215.667 290.5,219C 259.167,219.667 227.833,219.667 196.5,219C 195.203,215.501 195.203,212.001 196.5,208.5 Z"/></g>
<g><path style="opacity:1" fill="#de8f1c" d="M 325.5,208.5 C 332.508,208.334 339.508,208.5 346.5,209C 347.617,212.073 347.784,215.24 347,218.5C 339.914,219.646 332.747,219.812 325.5,219C 324.203,215.501 324.203,212.001 325.5,208.5 Z"/></g>
<g><path style="opacity:1" fill="#de8f1c" d="M 376.5,208.5 C 383.508,208.334 390.508,208.5 397.5,209C 398.617,212.073 398.784,215.24 398,218.5C 390.914,219.646 383.747,219.812 376.5,219C 375.203,215.501 375.203,212.001 376.5,208.5 Z"/></g>
<g><path style="opacity:1" fill="#ecc018" d="M 184.5,227.5 C 258.218,228.185 331.885,228.185 405.5,227.5C 447.53,231.192 477.53,252.192 495.5,290.5C 495.291,291.086 494.957,291.586 494.5,292C 478.167,292.667 461.833,292.667 445.5,292C 443.788,287.292 440.454,284.292 435.5,283C 415.5,282.333 395.5,282.333 375.5,283C 369.864,285.676 364.531,288.676 359.5,292C 334.5,292.667 309.5,292.667 284.5,292C 277.951,272.72 264.618,265.386 244.5,270C 234.943,274.461 228.943,281.794 226.5,292C 218.5,292.667 210.5,292.667 202.5,292C 195.951,272.72 182.618,265.386 162.5,270C 152.943,274.461 146.943,281.794 144.5,292C 126.5,292.667 108.5,292.667 90.5,292C 88.7878,287.292 85.4545,284.292 80.5,283C 67.5,282.667 54.5,282.333 41.5,282C 40.1667,274.333 40.1667,266.667 41.5,259C 74.6551,249.711 107.988,241.044 141.5,233C 155.876,230.313 170.21,228.479 184.5,227.5 Z"/></g>
<g><path style="opacity:1" fill="#dd8e1c" d="M 23.5,290.5 C 41.8364,290.333 60.1697,290.5 78.5,291C 83.8333,294.667 83.8333,298.333 78.5,302C 60.1667,302.667 41.8333,302.667 23.5,302C 20.3975,300.719 17.7308,298.886 15.5,296.5C 17.9024,294.091 20.5691,292.091 23.5,290.5 Z"/></g>
<g><path style="opacity:1" fill="#ea961e" d="M 8.5,304.5 C 12.5562,306.025 16.5562,307.859 20.5,310C 24.4213,310.203 28.2546,310.703 32,311.5C 32.3333,320.167 32.6667,328.833 33,337.5C 33.4652,338.931 34.2986,340.097 35.5,341C 39.8333,343.333 44.1667,345.667 48.5,348C 47.999,359.683 43.3323,369.683 34.5,378C 26.7971,384.022 18.1304,387.522 8.5,388.5C 8.5,360.5 8.5,332.5 8.5,304.5 Z"/></g>
</svg>
